<svg xmlns="http://www.w3.org/2000/svg" viewBox="0 0 500 183.83" xmlns:v="https://vecta.io/nano"><path d="M312.34 140.53c-1.67 1.47-3.5 2.2-5.44 2.2h-87.3c-4.05 0-7.15-1.43-9.32-4.3s-2.83-6.33-2-10.38l4.6-21.6c.7-3.36 2.02-6.57 3.98-9.65 1.95-3.07 4.3-5.87 7-8.4s5.8-4.75 9.2-6.7 6.94-3.42 10.57-4.4l41.87-11.12c2.65-.7 4.95-2.13 6.9-4.3s3.28-4.65 3.98-7.45L300.2 37c.7-2.93.2-5.5-1.47-7.66-1.67-2.17-4.05-3.25-7.12-3.25h-16.96c-3.07 0-5.86 1.08-8.38 3.25-2.5 2.17-4.12 4.7-4.82 7.64l-2.5 11.1c-.42 1.96-1.47 3.63-3.14 5.02-1.68 1.4-3.5 2.1-5.44 2.1H230.9c-1.96 0-3.5-.7-4.6-2.1s-1.47-3.07-1.05-5.02l2.5-11.1c2.1-10.02 6.66-17.94 13.7-23.74s15.67-8.7 25.86-8.7h43.34c10.33 0 17.72 2.93 22.2 8.8s5.65 13.82 3.56 23.87l-4.4 20.5c-1.4 6.7-4.6 12.63-9.63 17.8s-10.75 8.6-17.17 10.26l-45.85 12.35a16.23 16.23 0 0 0-7.01 3.87c-2.02 1.88-3.4 4.5-4.08 7.85l-.63 3.77c-.42 1.96-.07 3.63 1.05 5.03s2.72 2.1 4.82 2.1h58c1.95 0 3.5.73 4.6 2.2s1.47 3.18 1.05 5.13l-1.47 7.33c-.55 1.96-1.66 3.67-3.34 5.13m127.53-21.87c-1.75 1.38-3.6 2.07-5.55 2.07-1.96 0-3.8.73-5.55 2.2s-2.83 3.18-3.25 5.13l-1.67 7.33c-.42 1.96-1.47 3.66-3.14 5.13-1.68 1.47-3.5 2.2-5.44 2.2h-18.42c-1.96 0-3.5-.73-4.6-2.2s-1.4-3.17-.84-5.13l1.47-7.33c.42-1.95.07-3.66-1.05-5.13s-2.72-2.2-4.8-2.2h-50.88c-3.35 0-5.97-1.15-7.85-3.45-1.9-2.3-2.48-5.2-1.78-8.7.28-.84.42-1.46.42-1.88l31.2-81.24C363.58 11.5 374.54 4.53 391 4.53h17.6c1.4 0 2.48.48 3.25 1.45s1 2.14.73 3.52a14.4 14.4 0 0 1-1.05 2.07l-7.12 10.58c-.7 1.24-1.7 2.2-3.04 2.9s-2.76 1.04-4.3 1.04c-1.82 0-3.53.6-5.13 1.8a9.95 9.95 0 0 0-3.46 4.53l-23.03 62.75c0 .28-.07.5-.2.63-.28.84-.1 1.62.52 2.32s1.36 1.05 2.2 1.05h23.66c2.1 0 4-.73 5.76-2.2 1.74-1.47 2.83-3.17 3.25-5.13l10.68-50.67c.42-1.95 1.5-3.66 3.25-5.13 1.74-1.47 3.6-2.2 5.55-2.2h18.22c1.95 0 3.5.73 4.6 2.2s1.47 3.18 1.05 5.13l-10.7 50.67c-.42 1.96-.07 3.66 1.05 5.13 1.1 1.47 2.65 2.2 4.6 2.2s3.52.73 4.7 2.18 1.5 3.14.94 5.08l-1.47 7.26c-.44 1.94-1.53 3.6-3.27 4.98" fill="#d90e1a"/><path d="M72.12 162.52c.07-.3.15-.45.2-.5l.01.01c.01 0 .15.02.57.3l1 .52c.3.13.66.2 1.04.2 1.07 0 2.46-.6 2.97-3.45l.12-.7h-2.96l-.07.5c-.06.36-.15.44-.15.44-.01 0-.16-.02-.6-.3a6.43 6.43 0 0 0-.96-.51c-.34-.14-.7-.2-1.1-.2-1.08 0-2.48.6-3 3.47l-.12.7H72l.1-.46z" fill="#2f4659"/><path d="M10.02 167.26c1.34-.76 3-.9 4.5-.26a5.04 5.04 0 0 1 1.63 1.1l.45.46 2.6-3-.4-.4c-.73-.72-1.64-1.3-2.7-1.7a9.05 9.05 0 0 0-3.29-.61c-1.7 0-3.27.4-4.7 1.17a9.21 9.21 0 0 0-3.42 3.19 8.24 8.24 0 0 0-1.28 4.46c0 1.4.33 2.7 1 3.85.66 1.15 1.6 2.06 2.76 2.73 1.17.66 2.5 1 3.95 1 1.05 0 2.12-.2 3.18-.56a12.29 12.29 0 0 0 2.93-1.5l.2-.14 1.28-6.57h-3.65l-.84 4.3a8.06 8.06 0 0 1-1.26.5c-1.4.4-2.55.24-3.5-.3A3.76 3.76 0 0 1 8 173.57c-.35-.6-.53-1.3-.53-2.06a4.59 4.59 0 0 1 .69-2.46c.45-.74 1.08-1.35 1.86-1.8m25.2-.53l.7-3.65H23.87l-3.2 16H33l.7-3.65h-8.25l.5-2.55h7.23l.72-3.65h-7.22l.5-2.5zm6.94.22c.64-.4 1.8-.45 3.3.02.72.23 1.42.56 2.08 1l.53.35 1.94-3.46-.43-.3c-.74-.53-1.6-.95-2.56-1.25-2.1-.66-4.53-.6-6.33.2-1 .44-1.8 1.08-2.38 1.9-.58.83-.87 1.8-.87 2.85 0 .94.25 1.72.73 2.32a4.7 4.7 0 0 0 1.67 1.3 17.26 17.26 0 0 0 2.3.82l1.52.52a2.48 2.48 0 0 1 .78.49c.14.13.2.3.2.52a1.01 1.01 0 0 1-.47.91c-.75.52-2.34.57-3.96-.15a6.97 6.97 0 0 1-2.17-1.5l-.54-.55-2.04 3.47.33.32c.8.8 1.78 1.42 2.9 1.87a9.25 9.25 0 0 0 3.53.69c1.24 0 2.37-.22 3.37-.65 1.03-.44 1.85-1.1 2.45-1.93.6-.85.9-1.87.9-3.02 0-.94-.25-1.72-.73-2.33a4.72 4.72 0 0 0-1.66-1.32c-.6-.28-1.35-.56-2.28-.86l-1.53-.53a2.22 2.22 0 0 1-.75-.49c-.15-.15-.2-.3-.2-.54.01-.27.12-.47.4-.64m23.8-3.9H52.7l-.7 3.7h4.6l-2.5 12.3h4.04l2.5-12.3h4.64zm5.3 0l-9.65 16h4.3l1.82-3.14h6.47l.78 3.14h4.27l-4.3-16h-3.7zm2.06 9.26H69.9l2.44-4.2 1.04 4.2zm21.36-8.47c-1.18-.65-2.52-.97-3.98-.97-1.66 0-3.22.4-4.63 1.16a9.07 9.07 0 0 0-3.4 3.19c-.84 1.35-1.26 2.86-1.26 4.47 0 1.4.34 2.7 1 3.85.67 1.15 1.6 2.06 2.78 2.73 1.18.66 2.52 1 3.98 1a9.38 9.38 0 0 0 4.62-1.19 9.28 9.28 0 0 0 3.4-3.21c.85-1.35 1.27-2.86 1.27-4.47 0-1.4-.34-2.7-1-3.85-.65-1.15-1.6-2.06-2.78-2.7m-.33 6.77a4.69 4.69 0 0 1-.68 2.45h0a5.17 5.17 0 0 1-1.82 1.81c-1.4.82-3.13.9-4.4.13-.6-.36-1.08-.85-1.43-1.46s-.53-1.3-.53-2.06a4.6 4.6 0 0 1 .69-2.44c.46-.75 1.1-1.36 1.86-1.8a4.88 4.88 0 0 1 2.46-.66c.73 0 1.38.17 1.97.52s1.04.82 1.4 1.44a4.31 4.31 0 0 1 .5 2.07m22.14-7.57H110l-3.2 16h4.03l.87-4.36h2.76c1.52 0 2.88-.3 4.02-.86 1.16-.58 2.07-1.4 2.7-2.46.62-1.05.94-2.28.94-3.65 0-1.5-.5-2.66-1.5-3.48-.96-.8-2.33-1.2-4.07-1.2m1.63 5.2c0 .9-.27 1.56-.83 2.03-.58.5-1.44.73-2.55.73h-2.38l.87-4.3h2.65c.77 0 1.36.14 1.74.42.35.25.5.6.5 1.13m14.76-5.2h-6.67l-3.2 16h4.03l.87-4.36H131l1.67 4.36h4.54l-2.37-5.15a6.45 6.45 0 0 0 2.66-2.2c.77-1.1 1.16-2.45 1.16-3.96 0-1.5-.52-2.67-1.54-3.5-.98-.78-2.4-1.2-4.17-1.2m-3.37 3.65h2.9c.78 0 1.38.14 1.76.42.34.25.5.6.5 1.13 0 .9-.27 1.56-.83 2.03h0c-.58.48-1.44.73-2.55.73h-2.63l.87-4.3zm10.52 12.36h12.32l.7-3.65h-8.26l.5-2.55h7.22l.72-3.65h-7.22l.5-2.5h8.05l.7-3.65H143.3zm29.03-16l-5.75 10.65-2.17-10.65h-4.26l3.68 16h3.75l9.05-16zm3.2 16h12.32l.7-3.65h-8.26l.5-2.55h7.23l.7-3.65h-7.22l.5-2.5h8.05l.7-3.65h-12.03zm27.37-6.85l-4.97-9.15h-3.52l-3.2 16h4l1.83-9.1 4.94 9.1h3.52l3.2-16h-3.93zm8.3-9.15l-.7 3.7h4.6l-2.5 12.3h4.03l2.5-12.3h4.65l.68-3.7zm12.6 16h4.03l3.2-16h-4.03zm21.53-16l-5.75 10.65-2.17-10.65h-4.26l3.68 16h3.75l9.05-16zm9.6 0l-9.65 16h4.3l1.82-3.14h6.47l.78 3.14h4.27l-4.3-16h-3.7zm2.06 9.26h-3.48l2.44-4.2 1.04 4.2zm28.15-8.4c-1.1-.57-2.37-.86-3.8-.86h-6.3l-3.18 16h7.13c1.74 0 3.37-.4 4.82-1.2 1.46-.8 2.64-1.9 3.5-3.28.86-1.4 1.3-2.95 1.3-4.65 0-1.33-.3-2.52-.9-3.57s-1.46-1.87-2.56-2.45m-.62 6.37c0 .96-.23 1.84-.68 2.6h0a4.99 4.99 0 0 1-1.83 1.82 4.89 4.89 0 0 1-2.47.66h-2.9l1.74-8.66h2.57c.7 0 1.35.15 1.88.46a3.13 3.13 0 0 1 1.25 1.25c.3.55.45 1.17.45 1.87m5.42 8.77h12.33l.68-3.65h-8.25l.5-2.55h7.22l.72-3.65h-7.22l.5-2.5h8.06l.7-3.65h-12.04zm32.66-7l-2.83-9h-4.05l-3.1 16h3.72l1.78-9.04 2.3 7.52h2.48l5.15-7.33-1.75 8.85h3.7l3.1-16h-4.15zm25.28-8.22c-1.18-.65-2.52-.97-3.98-.97-1.66 0-3.22.4-4.63 1.16-1.42.77-2.56 1.85-3.4 3.2s-1.26 2.86-1.26 4.47c0 1.4.34 2.7 1 3.85.67 1.15 1.6 2.06 2.78 2.73 1.18.66 2.52 1 3.98 1a9.38 9.38 0 0 0 4.62-1.19 9.28 9.28 0 0 0 3.4-3.21c.85-1.35 1.28-2.86 1.28-4.47 0-1.4-.34-2.7-1-3.85a7.22 7.22 0 0 0-2.8-2.71m-.32 6.77c0 .87-.23 1.7-.68 2.45a5.17 5.17 0 0 1-1.82 1.81c-1.4.82-3.13.9-4.4.13-.6-.35-1.08-.85-1.43-1.46s-.53-1.3-.53-2.06a4.47 4.47 0 0 1 .7-2.44 5.43 5.43 0 0 1 1.86-1.8 4.88 4.88 0 0 1 2.46-.66c.73 0 1.38.17 1.97.52a3.8 3.8 0 0 1 1.4 1.44c.32.62.5 1.3.5 2.07m20.1-7.57h-13.3l-.68 3.7h4.6l-2.5 12.3h4.04l2.5-12.3h4.65zm12.52.8c-1.18-.65-2.52-.97-3.98-.97-1.66 0-3.22.4-4.63 1.16-1.42.77-2.56 1.85-3.4 3.2s-1.26 2.86-1.26 4.47c0 1.4.34 2.7 1 3.85.67 1.15 1.6 2.06 2.78 2.73 1.18.66 2.52 1 3.98 1a9.38 9.38 0 0 0 4.62-1.19 9.28 9.28 0 0 0 3.4-3.21c.85-1.35 1.28-2.86 1.28-4.47 0-1.4-.34-2.7-1-3.85a7.29 7.29 0 0 0-2.8-2.71m-.33 6.77c0 .87-.23 1.7-.68 2.45a5.17 5.17 0 0 1-1.82 1.81c-1.4.82-3.12.9-4.4.13-.6-.35-1.08-.85-1.43-1.46s-.53-1.3-.53-2.06a4.47 4.47 0 0 1 .7-2.44 5.43 5.43 0 0 1 1.86-1.8 4.88 4.88 0 0 1 2.46-.66c.73 0 1.37.17 1.97.52s1.04.82 1.4 1.44a4.31 4.31 0 0 1 .5 2.07m12.23-3.4h0c1.28-.74 2.87-.92 4.28-.2a4.52 4.52 0 0 1 1.53 1.26l.43.54 2.68-2.98-.35-.4a7.52 7.52 0 0 0-2.65-1.9 8.21 8.21 0 0 0-3.28-.69c-1.65 0-3.2.4-4.6 1.17-1.4.78-2.54 1.85-3.37 3.2-.84 1.35-1.26 2.85-1.26 4.46 0 1.4.33 2.7.98 3.85s1.56 2.06 2.72 2.73c1.15.66 2.46 1 3.9 1 1.12 0 2.27-.25 3.42-.73a10.75 10.75 0 0 0 3.08-1.98l.4-.37-2.24-2.78-.46.42a6.89 6.89 0 0 1-1.86 1.2c-1.45.6-2.85.54-3.95-.1a3.77 3.77 0 0 1-1.4-1.43c-.34-.62-.5-1.28-.5-2.04a4.65 4.65 0 0 1 .67-2.43c.46-.74 1.07-1.33 1.82-1.77m9.97 11.8h4.03l3.2-16h-4.04zm15.23-11.82c1.3-.74 2.87-.92 4.28-.2a4.52 4.52 0 0 1 1.53 1.26l.43.54 2.68-2.98-.35-.4a7.52 7.52 0 0 0-2.65-1.9 8.21 8.21 0 0 0-3.28-.69c-1.65 0-3.2.4-4.6 1.17-1.4.78-2.54 1.85-3.37 3.2-.84 1.35-1.27 2.85-1.27 4.46 0 1.4.33 2.7.98 3.85s1.56 2.06 2.72 2.73c1.15.66 2.46 1 3.9 1 1.12 0 2.27-.25 3.42-.73a10.75 10.75 0 0 0 3.08-1.98l.4-.37-2.24-2.78-.46.42a6.89 6.89 0 0 1-1.86 1.2c-1.45.6-2.85.54-3.95-.1a3.77 3.77 0 0 1-1.4-1.43c-.34-.62-.5-1.28-.5-2.04a4.56 4.56 0 0 1 .67-2.43c.47-.74 1.08-1.33 1.83-1.77m17.18-4.2h-4.03l-3.2 16h10.4l.7-3.73h-6.36zm5.93 16h12.33l.68-3.65H442l.5-2.55h7.23l.72-3.65h-7.22l.5-2.5h8.06l.7-3.65h-12.04zm30.53-16h-13.3l-.68 3.7h4.6l-2.5 12.3h4.04l2.5-12.3h4.65zm5.3 0l-9.65 16h4.3l1.82-3.14H476l.78 3.14h4.27l-4.3-16h-3.7zm2.06 9.26h-3.48l2.44-4.2 1.04 4.2zm18.05-2.3h0c-.58-.28-1.35-.57-2.28-.86l-1.53-.53a2.36 2.36 0 0 1-.75-.48c-.15-.15-.2-.3-.2-.54a.71.71 0 0 1 .38-.66c.64-.4 1.8-.46 3.3.02.72.23 1.42.56 2.08 1l.53.35 1.94-3.46-.43-.3c-.74-.53-1.6-.95-2.56-1.25-2.1-.66-4.53-.6-6.33.2-1 .44-1.8 1.08-2.38 1.9-.58.83-.87 1.8-.87 2.86 0 .94.25 1.72.73 2.32a4.7 4.7 0 0 0 1.67 1.3c.6.27 1.37.55 2.3.82l1.52.52a2.33 2.33 0 0 1 .78.5c.14.14.2.3.2.52a1.01 1.01 0 0 1-.47.91c-.75.52-2.34.57-3.96-.15a6.97 6.97 0 0 1-2.17-1.5l-.54-.55-2.04 3.47.33.32c.8.8 1.78 1.42 2.9 1.87a9.25 9.25 0 0 0 3.53.69c1.24 0 2.37-.22 3.37-.65 1.03-.44 1.85-1.1 2.45-1.93.6-.85.9-1.87.9-3.02 0-.94-.25-1.72-.73-2.33a4.26 4.26 0 0 0-1.65-1.34" fill="#1f2b34"/><path d="M209.12 37.94c-2.23-2.86-5.38-4.3-9.42-4.3h-6.9c-2.8 0-5.52.52-8.17 1.57a31.54 31.54 0 0 0-7.54 4.29l-23.03 17.17c-2.23 1.82-4.6 2.72-7.12 2.72s-4.47-.84-5.86-2.5l-15.7-17.38c-1.68-1.8-3.63-3.25-5.86-4.3-2.23-1.05-4.82-1.57-7.75-1.57h-6.5c-4.05 0-7.78 1.43-11.2 4.3s-5.62 6.32-6.6 10.36l-10.4 48.68h32.77l3.6-16.43c.28-1.4.97-2.58 2.1-3.56s2.37-1.47 3.77-1.47a3.54 3.54 0 0 1 1.88.52c.56.35.97.66 1.26.94l2.93 3.14c1.26 1.54 1.68 3.35 1.26 5.44l-10.47 49.83c-.56 1.96-.25 3.66.94 5.13 1.18 1.47 2.75 2.2 4.7 2.2h14.45c2.1 0 4-.73 5.76-2.2 1.74-1.47 2.83-3.17 3.25-5.13l10.47-49.62c.28-1.12.77-2.13 1.47-3.04a15.52 15.52 0 0 1 2.3-2.41l4.4-3.35c.56-.28 1.15-.6 1.78-.94s1.3-.52 2-.52c1.4 0 2.44.5 3.14 1.47s.9 2.17.63 3.56l-11.72 54.86c-.42 1.96-.04 3.66 1.15 5.13 1.18 1.47 2.75 2.2 4.7 2.2h18c2.1 0 4-.73 5.76-2.2 1.74-1.47 2.83-3.17 3.25-5.13l18.63-87.1c.8-4.04.1-7.5-2.12-10.36" fill="#2f4659"/><path d="M112.06 87.75h-.16l-4.2 19.57z" fill="#fff"/><path d="M77 120.02c-1.87 0-3.48 1.4-3.9 3.35L69 143.13h32.96l3.96-23.1H77zM48.28 97.46c-1.87 0-3.48 1.4-3.9 3.35l-4.1 19.76h32.96l3.96-23.1H48.28zm-36.92 22.56c-1.87 0-3.48 1.4-3.9 3.35l-4.1 19.76h32.96l3.96-23.1H11.36zm9.74-45.64c-1.87 0-3.48 1.4-3.9 3.35L13.1 97.5h32.96l3.96-23.1H21.1z" fill="#2f4659"/><path d="M471.54 144.22l-4.2-1.9c-6.4-3.38-10.06-8.76-10.83-16.23-.27-2.57-.28-5.17.04-7.8.46-3.76 1.03-7.5 1.56-11.27.14-1 .88-1.6 1.94-1.64 1.15-.06 2.3-.08 3.44-.2 4.7-.5 9-2.23 12.9-5.37.2-.17.4-.35.62-.5.85-.68 1.66-.66 2.35 0 .88.84 1.73 1.7 2.7 2.45 2.42 1.87 5.28 2.93 8.45 3.34 1.3.17 2.62.23 3.94.3 1.3.06 1.8.62 1.63 1.92l-1.18 8.92c-.53 3.56-1.37 7.08-2.78 10.53-2.88 7.06-7.87 12.17-14.82 15.44-1.65.77-3.35 1.37-5.03 2.05h-.72zm-10.47-35.65l-.08.45-.87 5.72c-.5 3.5-.8 6.97-.47 10.4.4 4.17 1.8 7.8 4.6 10.7 2.2 2.3 4.93 3.86 7.94 5.03a.67.67 0 0 0 .46-.03c1.77-.77 3.57-1.46 5.28-2.37 3.73-1.98 6.8-4.74 9.1-8.33 2.23-3.5 3.47-7.25 4.17-11.1.62-3.35 1-6.7 1.48-10.07.02-.14.02-.3.03-.42l-3.33-.38c-4.4-.62-8.16-2.36-11.22-5.28-.33-.3-.53-.3-.94 0-3.73 2.8-7.8 4.54-12.2 5.2-1.3.2-2.58.33-3.92.5" fill="#d90e1a"/><path d="M471.54 144.22l-4.2-1.9c-6.4-3.38-10.06-8.76-10.83-16.23-.27-2.57-.28-5.17.04-7.8.46-3.76 1.03-7.5 1.56-11.27.14-1 .88-1.6 1.94-1.64 1.15-.06 2.3-.08 3.44-.2 4.7-.5 9-2.23 12.9-5.37.2-.17.4-.35.62-.5.85-.68 1.66-.66 2.35 0 .88.84 1.73 1.7 2.7 2.45 2.42 1.87 5.28 2.93 8.45 3.34 1.3.17 2.62.23 3.94.3 1.3.06 1.8.62 1.63 1.92l-1.18 8.92c-.53 3.56-1.37 7.08-2.78 10.53-2.88 7.06-7.87 12.17-14.82 15.44-1.65.77-3.35 1.37-5.03 2.05h-.72zm-10.47-35.65l-.08.45-.87 5.72c-.5 3.5-.8 6.97-.47 10.4.4 4.17 1.8 7.8 4.6 10.7 2.2 2.3 4.93 3.86 7.94 5.03a.67.67 0 0 0 .46-.03c1.77-.77 3.57-1.46 5.28-2.37 3.73-1.98 6.8-4.74 9.1-8.33 2.23-3.5 3.47-7.25 4.17-11.1.62-3.35 1-6.7 1.48-10.07.02-.14.02-.3.03-.42l-3.33-.38c-4.4-.62-8.16-2.36-11.22-5.28-.33-.3-.53-.3-.94 0-3.73 2.8-7.8 4.54-12.2 5.2-1.3.2-2.58.33-3.92.5z" fill="none" stroke="#d90e1a" stroke-width="1.5" stroke-miterlimit="10"/><path d="M472.63 123.7c.13-.15.23-.3.36-.4l8.15-7.15c.38-.34.78-.6 1.27-.6.67-.02 1.15.24 1.37.84.22.6.1 1.17-.4 1.7a3.78 3.78 0 0 1-.41.39l-9.47 8.3c-1.1.97-1.92.98-2.75.01l-3.53-4.1c-.4-.46-.48-1-.2-1.62.26-.6.74-.98 1.37-1.1.62-.13 1.08.1 1.45.53l2.43 2.82.36.4" fill="#d90e1a"/><path d="M472.63 123.7c.13-.15.23-.3.36-.4l8.15-7.15c.38-.34.78-.6 1.27-.6.67-.02 1.15.24 1.37.84.22.6.1 1.17-.4 1.7a3.78 3.78 0 0 1-.41.39l-9.47 8.3c-1.1.97-1.92.98-2.75.01l-3.53-4.1c-.4-.46-.48-1-.2-1.62.26-.6.74-.98 1.37-1.1.62-.13 1.08.1 1.45.53l2.43 2.82.36.4z" fill="none" stroke="#d90e1a" stroke-width="1.5" stroke-miterlimit="10"/></svg>